<svg width="48" height="48" viewBox="0 0 48 48" fill="none" xmlns="http://www.w3.org/2000/svg">
<path d="M37.3855 10L25.7832 18.6532L27.9287 13.5479L37.3855 10Z" fill="#E2761B"/>
<path d="M10.6013 10L22.1103 18.7352L20.0697 13.5479L10.6013 10ZM33.2111 30.0581L30.1211 34.8121L36.7326 36.6387L38.6333 30.1635L33.2111 30.0581ZM9.37695 30.1635L11.266 36.6387L17.8775 34.8121L14.7874 30.0581L9.37695 30.1635Z" fill="#E4761B"/>
<path d="M17.5045 22.026L15.6621 24.8246L22.227 25.1173L21.9938 18.0331L17.5045 22.026ZM30.4827 22.026L25.9351 17.9512L25.7835 25.1173L32.3367 24.8246L30.4827 22.026ZM17.8776 34.8126L21.8189 32.8806L18.414 30.2108L17.8776 34.8126ZM26.1683 32.8806L30.1212 34.8126L29.5731 30.2108L26.1683 32.8806Z" fill="#E4761B"/>
<path d="M30.1205 34.811L26.1676 32.8789L26.4824 35.4667L26.4475 36.5556L30.1205 34.811ZM17.877 34.811L21.55 36.5556L21.5267 35.4667L21.8182 32.8789L17.877 34.811Z" fill="#D7C1B3"/>
<path d="M21.6086 28.5003L18.3203 27.5284L20.6408 26.4629L21.6086 28.5003ZM26.3778 28.5003L27.3456 26.4629L29.6777 27.5284L26.3778 28.5003Z" fill="#233447"/>
<path d="M17.8772 34.8123L18.4369 30.0583L14.7871 30.1637L17.8772 34.8123ZM29.561 30.0583L30.1207 34.8123L33.2108 30.1637L29.561 30.0583ZM32.3362 24.8242L25.783 25.117L26.3894 28.501L27.3572 26.4635L29.6893 27.5291L32.3362 24.8242ZM18.3203 27.5291L20.6524 26.4635L21.6085 28.501L22.2265 25.117L15.6617 24.8242L18.3203 27.5291Z" fill="#CD6116"/>
<path d="M15.6621 24.8242L18.414 30.2105L18.3207 27.5291L15.6621 24.8242ZM29.6897 27.5291L29.5731 30.2105L32.3367 24.8242L29.6897 27.5291ZM22.227 25.117L21.609 28.501L22.3786 32.4938L22.5535 27.2363L22.227 25.117ZM25.7835 25.117L25.4686 27.2246L25.6086 32.4938L26.3898 28.501L25.7835 25.117Z" fill="#E4751F"/>
<path d="M26.3894 28.5012L25.6082 32.4941L26.1679 32.8805L29.5727 30.2107L29.6894 27.5293L26.3894 28.5012ZM18.3203 27.5293L18.4136 30.2107L21.8185 32.8805L22.3782 32.4941L21.6086 28.5012L18.3203 27.5293Z" fill="#F6851B"/>
<path d="M26.4475 36.5572L26.4824 35.4682L26.1909 35.2106H21.7949L21.5267 35.4682L21.55 36.5572L17.877 34.8125L19.1596 35.8663L21.7599 37.6813H26.2259L28.8379 35.8663L30.1205 34.8125L26.4475 36.5572Z" fill="#C0AD9E"/>
<path d="M26.1682 32.8805L25.6085 32.4941H22.3786L21.8189 32.8805L21.5273 35.4683L21.7955 35.2107H26.1916L26.4831 35.4683L26.1682 32.8805Z" fill="#161616"/>
<path d="M37.8761 19.2153L38.8672 14.4378L37.3863 10L26.1689 18.3605L30.4833 22.0255L36.5817 23.817L37.9344 22.2363L37.3513 21.8147L38.2842 20.9599L37.5612 20.3979L38.4941 19.6836L37.8761 19.2153ZM9.13281 14.4378L10.124 19.2153L9.49429 19.6836L10.4271 20.3979L9.71584 20.9599L10.6487 21.8147L10.0657 22.2363L11.4066 23.817L17.5051 22.0255L21.8195 18.3605L10.602 10L9.13281 14.4378Z" fill="#763D16"/>
<path d="M36.581 23.8179L30.4825 22.0264L32.3366 24.8249L29.573 30.2112L33.2111 30.1644H38.6333L36.581 23.8179ZM17.5044 22.0264L11.4059 23.8179L9.37695 30.1644H14.7874L18.4139 30.2112L15.662 24.8249L17.5044 22.0264ZM25.7833 25.1177L26.1681 18.3614L27.9405 13.5488H20.0697L21.8188 18.3614L22.2269 25.1177L22.3668 27.2488L22.3785 32.4945H25.6084L25.6318 27.2488L25.7833 25.1177Z" fill="#F6851B"/>
</svg>
